<svg width="16" height="17" viewBox="0 0 16 17" fill="none" xmlns="http://www.w3.org/2000/svg">
<path d="M15 1.99847H1C0.4505 1.99847 0 2.44897 0 2.99847V14.5015C0 15.051 0.45 15.5015 1 15.5015H15C15.5495 15.5015 16 15.051 16 14.5015V2.99847C16 2.44897 15.5495 1.99847 15 1.99847ZM15 14.5015H1V11.5555L5.0135 7.66597L9.151 11.7985C9.3215 12.0055 9.625 11.979 9.8405 11.816L11.6665 10.163L14.96 13.544C14.9725 13.5565 14.9865 13.566 15 13.5765V14.5015ZM15 12.153L12.062 9.14647C11.8835 8.97047 11.6045 8.95297 11.4065 9.10347L9.5225 10.7445L5.3825 6.64947C5.294 6.54247 5.1665 6.47747 5.028 6.46797C4.8905 6.46297 4.7545 6.50797 4.6535 6.60297L0.999 10.159V2.99797H14.999V12.1525L15 12.153ZM11.5 7.00197C12.051 7.00197 12.4975 6.55497 12.4975 6.00447C12.4975 5.45397 12.0515 5.00697 11.5 5.00697C10.9485 5.00697 10.5025 5.45397 10.5025 6.00447C10.5025 6.55497 10.9485 7.00197 11.5 7.00197Z" fill="white"/>
</svg>
