<svg width="24" height="25" viewBox="0 0 24 25" fill="none" xmlns="http://www.w3.org/2000/svg">
<g id="alert-2-svgrepo-com 1">
<path id="Vector" d="M10.9257 16.004C10.9257 15.862 10.9537 15.7214 11.0083 15.5903C11.063 15.4592 11.143 15.3403 11.2439 15.2403C11.3448 15.1404 11.4645 15.0614 11.596 15.0079C11.7276 14.9544 11.8684 14.9276 12.0105 14.9288C12.2199 14.9326 12.4236 14.998 12.5962 15.117C12.7686 15.2359 12.9023 15.4031 12.9803 15.5975C13.0583 15.792 13.0771 16.0052 13.0347 16.2103C12.9922 16.4155 12.8901 16.6035 12.7413 16.7511C12.5925 16.8985 12.4036 16.9989 12.198 17.0396C11.9925 17.0803 11.7795 17.0594 11.5858 16.9797C11.3919 16.9 11.226 16.7649 11.1086 16.5913C10.9912 16.4179 10.9276 16.2136 10.9257 16.004ZM11.2712 13.3832L11.1368 8.37201C11.124 8.25155 11.1368 8.12976 11.1742 8.01454C11.2115 7.89931 11.2727 7.79322 11.3537 7.70317C11.4347 7.61311 11.5338 7.54111 11.6444 7.49182C11.7551 7.44253 11.8749 7.41705 11.996 7.41705C12.1171 7.41705 12.2369 7.44253 12.3476 7.49182C12.4582 7.54111 12.5573 7.61311 12.6383 7.70317C12.7193 7.79322 12.7805 7.89931 12.8178 8.01454C12.8553 8.12976 12.868 8.25155 12.8553 8.37201L12.7305 13.3832C12.7305 13.5766 12.6537 13.7623 12.5168 13.8991C12.38 14.0359 12.1943 14.1128 12.0009 14.1128C11.8073 14.1128 11.6218 14.0359 11.485 13.8991C11.3482 13.7623 11.2712 13.5766 11.2712 13.3832Z" fill="#880000"/>
<path id="Vector_2" d="M12 21.14C16.9043 21.14 20.88 17.1643 20.88 12.26C20.88 7.35572 16.9043 3.38 12 3.38C7.09571 3.38 3.12 7.35572 3.12 12.26C3.12 17.1643 7.09571 21.14 12 21.14Z" stroke="#880000" stroke-width="2" stroke-linecap="round" stroke-linejoin="round"/>
</g>
</svg>
